<svg version="1" xmlns="http://www.w3.org/2000/svg" width="933.333" height="933.333" viewBox="0 0 700.000000 700.000000"><path d="M56.2 2C30.3 8.8 8.6 30.7 2 56.6 0 64.2 0 69.1 0 350s0 285.8 2 293.4c6.7 26.1 28.5 47.9 54.6 54.6 7.6 2 12.5 2 293.4 2s285.8 0 293.4-2c26.1-6.7 47.9-28.5 54.6-54.6 2-7.6 2-12.5 2-293.4s0-285.8-2-293.4C691.3 30.5 669.5 8.7 643.4 2 635.8 0 631 0 349.6.1 71.6.1 63.3.2 56.2 2zm320.3 78.5c39.3 5.9 73.2 23 101.1 50.9 25.7 25.8 40.6 53.2 49.2 90.6 2.5 10.9 2.6 12.9 2.6 37.5 0 23-.3 27.1-2.2 35.9-3.3 14.7-9.4 32-15.7 44.7-9.2 18.4-16.5 28.3-37.8 51.3-23 24.9-27.5 31.7-34.8 53.4-5.3 15.6-6.1 17.1-10.4 21.4-6.5 6.5-16.6 9.4-66 18.7-62.1 11.7-83 15.1-86.9 14-10.4-2.9-15.3-14.1-11-24.9 3.2-8 2.4-7.8 78.3-22.6 42.1-8.2 45.6-9.1 48.1-11.5 1.7-1.7 4.3-7.2 6.9-14.6 8.7-23.8 15.7-34.5 40.2-61.4 20.7-22.8 26.7-30.7 33.4-44.4 11-22.4 14-35.9 13.9-62-.1-17.1-.4-20-2.7-28.7-12.9-48.8-45.6-84.1-91.7-99.2-28.3-9.3-59.5-8.7-87.3 1.8-55.2 20.8-91.6 74.7-89.4 132.1 1.5 36.2 12.7 61.6 41.1 92.9 6.9 7.6 12.6 14.2 12.6 14.7 0 2.5-27.6 29.9-30.2 29.9-1.6 0-18.1-16.3-26.3-26.1-22.2-26.5-35.6-56.9-40.1-91.3-1.9-14.6-1.4-43.5 1-56.6 11.4-62.2 53.4-113.2 112.2-136.3 10.5-4.1 24.9-8 35.5-9.6 4-.6 8.5-1.3 9.9-1.5 7.2-1 37.4-.4 46.5.9zM290 201.1c1.5 2.4 12.7 24 25 47.9 31.8 61.9 34.4 67 35.1 67 .3 0 14-26.1 30.4-57.9 16.5-31.9 30.7-59 31.6-60.3l1.8-2.3 13.3 6.8c7.3 3.7 14.2 7.4 15.3 8.2 1.9 1.5 1.3 2.8-19.4 44.3-33.4 66.9-46.9 92.7-51.2 97.6-5.8 6.6-11.3 8.9-21.8 9-7.5.1-9.2-.2-13.6-2.6-2.7-1.4-6.2-3.9-7.7-5.5-3.5-3.6-15.5-26.4-47.8-90.6-24.8-49.2-25.4-50.6-23.5-52.1 3.4-2.6 27.8-14.7 28.9-14.3.6.2 2.2 2.3 3.6 4.8zm137 302.1c5.5 3.8 7.4 7.1 7.7 14.1.3 5 0 6.9-1.9 10.2-4 6.9-5.9 7.4-67.3 18.9-82.8 15.5-85.9 15.9-91.9 12.4-5.6-3.2-7.8-7.5-7.9-15.1-.1-7.3 2-11.9 6.4-14.6 3.8-2.4 21.2-6.1 74.4-16 73.6-13.8 74.6-13.9 80.5-9.9zm1.9 61.2c4.1 3.9 6.1 8.5 6.1 14.1 0 5.3-1.6 8.8-5.9 12.9-2.8 2.7-5.1 3.3-32.8 8.8-45.6 8.9-110.7 20.8-114.2 20.8-7.9 0-15.5-6.6-16.7-14.6-1.2-8.4 3.2-17.1 9.9-19.3 4.7-1.6 38.7-8.2 84.7-16.6 22.3-4 43-7.8 46-8.3 3-.6 8.7-1 12.7-.9 6.4.2 7.5.5 10.2 3.1z"/></svg>