<?xml version="1.0" standalone="no"?>
<!DOCTYPE svg PUBLIC "-//W3C//DTD SVG 20010904//EN"
 "http://www.w3.org/TR/2001/REC-SVG-20010904/DTD/svg10.dtd">
<svg version="1.0" xmlns="http://www.w3.org/2000/svg"
 width="1000.000000pt" height="1000.000000pt" viewBox="0 0 1000.000000 1000.000000"
 preserveAspectRatio="xMidYMid meet">
<metadata>
Created by potrace 1.11, written by Peter Selinger 2001-2013
</metadata>
<g transform="translate(0.000000,1000.000000) scale(0.100000,-0.100000)"
fill="#000000" stroke="none">
<path d="M807 9984 c-373 -80 -658 -346 -774 -719 l-28 -90 0 -4175 0 -4175
28 -90 c116 -376 404 -642 780 -719 68 -14 491 -16 4187 -16 3696 0 4119 2
4187 16 376 77 664 343 780 719 l28 90 0 4175 0 4175 -28 90 c-116 376 -404
642 -780 719 -69 14 -490 16 -4194 15 -3575 -1 -4127 -3 -4186 -15z m4458
-1195 c388 -36 798 -183 1136 -407 461 -307 808 -745 1001 -1267 40 -109 102
-355 125 -495 25 -162 25 -576 0 -738 -45 -280 -123 -527 -246 -772 -127 -254
-262 -437 -513 -696 -260 -270 -381 -428 -457 -596 -17 -36 -51 -135 -77 -220
-56 -185 -78 -231 -139 -287 -78 -72 -201 -116 -475 -171 -342 -69 -1590 -300
-1619 -300 -17 0 -48 7 -68 15 -140 59 -193 209 -117 332 58 94 27 85 917 253
439 82 810 156 825 164 71 37 91 71 147 241 108 335 258 560 619 935 192 199
293 325 381 474 134 228 222 492 256 769 15 123 7 452 -14 562 -93 494 -336
904 -714 1208 -631 507 -1510 574 -2219 171 -455 -260 -800 -717 -929 -1234
-39 -157 -55 -294 -55 -481 0 -299 50 -541 166 -802 100 -226 233 -413 457
-644 l151 -154 -203 -202 -202 -202 -172 175 c-190 193 -316 352 -427 539
-416 703 -466 1583 -132 2329 262 586 757 1071 1342 1315 406 170 804 229
1255 186z m-720 -2556 c247 -486 451 -883 455 -883 3 0 147 278 319 618 173
339 377 740 453 889 l140 273 201 -105 c111 -58 201 -108 200 -112 -1 -5 -174
-345 -383 -758 -210 -412 -429 -843 -486 -957 -122 -241 -166 -298 -272 -350
-63 -31 -74 -33 -172 -33 -98 0 -109 2 -172 33 -130 63 -116 40 -655 1102
-266 525 -485 958 -486 963 -3 10 397 216 404 208 4 -3 208 -403 454 -888z
m1534 -3490 c27 -17 58 -48 76 -77 25 -42 30 -59 30 -116 0 -57 -5 -74 -30
-116 -61 -98 -6 -84 -1105 -290 -541 -101 -999 -184 -1019 -184 -42 0 -116 32
-149 63 -44 41 -66 97 -67 168 0 56 4 73 30 115 60 96 7 82 1100 288 741 140
993 184 1034 181 36 -2 69 -13 100 -32z m-31 -839 c52 -21 90 -60 118 -119 26
-56 30 -98 12 -157 -15 -51 -76 -120 -125 -141 -46 -20 -1950 -379 -2013 -379
-120 0 -230 108 -230 227 0 83 67 181 143 210 61 23 1931 373 2000 374 32 1
74 -6 95 -15z"/>
</g>
</svg>
