<?xml version="1.0" encoding="utf-8"?>
<!-- Generator: Adobe Illustrator 16.1.1, SVG Export Plug-In . SVG Version: 6.00 Build 0)  -->
<!DOCTYPE svg PUBLIC "-//W3C//DTD SVG 1.1//EN" "http://www.w3.org/Graphics/SVG/1.1/DTD/svg11.dtd">
<svg version="1.1" id="Layer_1" xmlns="http://www.w3.org/2000/svg" xmlns:xlink="http://www.w3.org/1999/xlink" x="0px" y="0px"
	 width="2000px" height="850px" viewBox="0 0 2000 850" enable-background="new 0 0 2000 850" xml:space="preserve">
<path fill="#FFFFFF" d="M873.605,32.232c-143.691,0-260.587,116.888-260.587,260.608c0,69.617,27.125,135.101,76.384,184.32
	l21.187,21.178l42.347-42.354l-21.177-21.179c-37.94-37.948-58.835-88.338-58.835-141.965c0-110.686,90.025-200.702,200.682-200.702
	s200.682,90.016,200.682,200.702c0,53.588-20.887,103.978-58.337,141.458c-58.229,55.85-67.961,91.575-73.771,112.909
	c-2.505,9.127-9.048,15.054-18.303,17.082l-82.77,15.562l-72.747,13.65c-13.008,2.457-21.578,14.977-19.131,27.964
	c2.156,11.506,12.217,19.541,23.518,19.541c1.464,0,2.956-0.118,4.448-0.391l93.563-17.551c0.03-0.039,0.059-0.039,0.089-0.039
	l70.036-13.183c47.68-10.336,50.839-16.654,59.086-46.879c4.456-16.343,11.196-41.069,57.897-85.881
	c49.221-49.221,76.327-114.665,76.327-184.243C1134.192,149.12,1017.296,32.232,873.605,32.232z M780.294,730.357l195.456-36.662
	c13.006-2.456,21.578-14.976,19.129-27.963c-2.448-13.027-15.016-21.607-27.963-19.151L771.46,683.244
	c-13.007,2.456-21.578,14.977-19.13,27.964c2.154,11.505,12.217,19.539,23.518,19.539
	C777.321,730.747,778.802,730.631,780.294,730.357z M780.294,817.408l195.456-36.661c13.006-2.457,21.578-14.977,19.129-27.964
	c-2.448-13.027-15.016-21.607-27.963-19.15L771.46,770.294c-13.007,2.458-21.578,14.978-19.13,27.965
	c2.154,11.505,12.217,19.539,23.518,19.539C777.321,817.798,778.802,817.682,780.294,817.408z M1964.277,736.676H1084.27v-39.938
	h880.008V736.676z M662.938,696.738H42.174v39.938h620.764V696.738z M1603.71,517.644h-331.355c-3.159,0-5.713-2.535-5.713-5.694
	V61.756h-59.905v450.193c0,36.193,29.426,65.601,65.618,65.601h331.355V517.644z M367.093,530.748L592.142,87.771l-53.403-27.126
	L313.301,504.383c-0.73,1.561-2.476,3.237-5.129,3.237c-2.535,0-4.308-1.716-5.04-3.159L77.674,60.645L24.263,87.771
	l225.466,443.835c11.263,22.153,33.658,35.921,58.443,35.921C333.416,567.526,356.689,552.784,367.093,530.748z M1974.263,61.756
	h-485.04v59.906h212.538V577.55h59.905V121.663h212.597V61.756z"/>
</svg>
